<mxfile host="drawio-plugin" modified="2023-10-05T08:55:05.281Z" agent="5.0 (X11; Linux x86_64) AppleWebKit/537.36 (KHTML, like Gecko) Chrome/111.0.0.0 Safari/537.36" etag="iLz-I2WIFbD_Ixd4Abnu" version="20.5.3" type="embed"><diagram id="XwDnvUgU_IuNNMq4S1fE" name="Page-1"><mxGraphModel dx="884" dy="634" grid="1" gridSize="10" guides="1" tooltips="1" connect="1" arrows="1" fold="1" page="1" pageScale="1" pageWidth="827" pageHeight="1169" math="0" shadow="0"><root><mxCell id="0"/><mxCell id="1" parent="0"/><mxCell id="9" value="Utilisateur&lt;br&gt;&lt;br&gt;" style="shape=umlActor;verticalLabelPosition=bottom;verticalAlign=top;html=1;outlineConnect=0;shadow=1;sketch=0;" parent="1" vertex="1"><mxGeometry x="54" y="180" width="60" height="70" as="geometry"/></mxCell><mxCell id="19" value="Consultation du catalogue" style="ellipse;whiteSpace=wrap;html=1;sketch=0;shadow=1;" parent="1" vertex="1"><mxGeometry x="306" y="50" width="100" height="60" as="geometry"/></mxCell><mxCell id="23" value="Validation panier pour créer nouvelle commande" style="ellipse;whiteSpace=wrap;html=1;shadow=1;sketch=0;" parent="1" vertex="1"><mxGeometry x="310" y="260" width="106" height="70" as="geometry"/></mxCell><mxCell id="26" style="edgeStyle=orthogonalEdgeStyle;rounded=0;orthogonalLoop=1;jettySize=auto;html=1;exitX=0.5;exitY=1;exitDx=0;exitDy=0;shadow=1;sketch=0;" parent="1" edge="1"><mxGeometry relative="1" as="geometry"><mxPoint x="228.9999999999999" y="510" as="sourcePoint"/><mxPoint x="228.9999999999999" y="510" as="targetPoint"/></mxGeometry></mxCell><mxCell id="36" value="Système" style="shape=umlActor;verticalLabelPosition=bottom;verticalAlign=top;html=1;outlineConnect=0;shadow=1;sketch=0;" parent="1" vertex="1"><mxGeometry x="680" y="210" width="60" height="70" as="geometry"/></mxCell><mxCell id="50" value="Ajout des produits dans le panier" style="ellipse;whiteSpace=wrap;html=1;shadow=1;sketch=0;" parent="1" vertex="1"><mxGeometry x="310" y="120" width="100" height="60" as="geometry"/></mxCell><mxCell id="51" value="Connexion et Déconnexion au site" style="ellipse;whiteSpace=wrap;html=1;shadow=1;sketch=0;" parent="1" vertex="1"><mxGeometry x="310" y="190" width="100" height="60" as="geometry"/></mxCell><mxCell id="70" value="" style="rounded=1;whiteSpace=wrap;html=1;shadow=1;sketch=0;fillColor=none;gradientColor=default;" vertex="1" parent="1"><mxGeometry x="237" width="246" height="600" as="geometry"/></mxCell><mxCell id="71" value="cas d'utlisations" style="text;html=1;strokeColor=none;fillColor=none;align=center;verticalAlign=middle;whiteSpace=wrap;rounded=0;shadow=1;sketch=0;" vertex="1" parent="1"><mxGeometry x="250" width="100" height="30" as="geometry"/></mxCell></root></mxGraphModel></diagram></mxfile>